<svg xmlns="http://www.w3.org/2000/svg" viewBox="0 0 271.47 66.88"><defs><clipPath id="clip-path"><path id="SVGID" class="cls-1" d="M38.5 62.88c-1.54 0-3.19-.82-5.21-2.58-1-.86-1.77-1.7-2-2C19.16 46.92 11.73 38.87 7.9 33 4.29 27.43 4 24.18 4 20.51A16.85 16.85 0 0 1 8.86 9.43 16.41 16.41 0 0 1 20.57 4C33.09 4 40.78 18.53 41.1 19.15a32.59 32.59 0 0 0 4.51 6.26c3.46 3.74 7 5.64 10.54 5.64h.1a10.64 10.64 0 0 0 7.46-3.11 10.37 10.37 0 0 0 3.07-7.4A10.51 10.51 0 0 0 56.28 10a11.36 11.36 0 0 0-9.35 4.29 3 3 0 0 1-4.55-4A17.29 17.29 0 0 1 56.27 4a16.56 16.56 0 0 1 16.55 16.54A16.37 16.37 0 0 1 68 32.22a16.72 16.72 0 0 1-11.66 4.87h-.16c-12.38 0-20-14.4-20.4-15.15a32.75 32.75 0 0 0-4.51-6.22C28.83 13.13 25 10 20.58 10a10.45 10.45 0 0 0-7.33 3.53A11 11 0 0 0 10 20.51c0 2.49 0 4.69 3 9.17C16.48 35.1 23.85 43.05 35.47 54l.17.18a18.26 18.26 0 0 0 2.56 2.32c1-.83 3-2.6 6.21-5.83 3-3 6.41-6.57 8.27-8.66a3 3 0 1 1 4.52 4c-1.81 2-5.57 6-9.26 9.66-1.93 1.92-3.56 3.46-4.83 4.57-2.32 2.05-3.36 2.64-4.61 2.64z"/></clipPath><style>.cls-1{fill:#009681}.cls-4{fill:#FFFFFF}</style></defs><g id="Layer_2" data-name="Layer 2"><g id="Layer_1-2" data-name="Layer 1"><path id="SVGID-2" data-name="SVGID" class="cls-1" d="M38.5 62.88c-1.54 0-3.19-.82-5.21-2.58-1-.86-1.77-1.7-2-2C19.16 46.92 11.73 38.87 7.9 33 4.29 27.43 4 24.18 4 20.51A16.85 16.85 0 0 1 8.86 9.43 16.41 16.41 0 0 1 20.57 4C33.09 4 40.78 18.53 41.1 19.15a32.59 32.59 0 0 0 4.51 6.26c3.46 3.74 7 5.64 10.54 5.64h.1a10.64 10.64 0 0 0 7.46-3.11 10.37 10.37 0 0 0 3.07-7.4A10.51 10.51 0 0 0 56.28 10a11.36 11.36 0 0 0-9.35 4.29 3 3 0 0 1-4.55-4A17.29 17.29 0 0 1 56.27 4a16.56 16.56 0 0 1 16.55 16.54A16.37 16.37 0 0 1 68 32.22a16.72 16.72 0 0 1-11.66 4.87h-.16c-12.38 0-20-14.4-20.4-15.15a32.75 32.75 0 0 0-4.51-6.22C28.83 13.13 25 10 20.58 10a10.45 10.45 0 0 0-7.33 3.53A11 11 0 0 0 10 20.51c0 2.49 0 4.69 3 9.17C16.48 35.1 23.85 43.05 35.47 54l.17.18a18.26 18.26 0 0 0 2.56 2.32c1-.83 3-2.6 6.21-5.83 3-3 6.41-6.57 8.27-8.66a3 3 0 1 1 4.52 4c-1.81 2-5.57 6-9.26 9.66-1.93 1.92-3.56 3.46-4.83 4.57-2.32 2.05-3.36 2.64-4.61 2.64z"/><path class="cls-4" d="M108.48 39.84H91c.85 3 3.63 4.52 7.13 4.52a9.24 9.24 0 0 0 6-2l2.73 2.72A12.27 12.27 0 0 1 97.49 49c-6.42 0-12.16-4.06-12.16-11.3s5.83-11.3 11.8-11.3 12.66 3.85 11.35 13.44zm-17.54-4.1h12.2c-.35-3.1-3.14-4.65-6-4.65a6.11 6.11 0 0 0-6.2 4.65zM108.34 26.78h6.14L121 41.89l6.41-15.11h6.2l-9.83 21.76h-5.61zM156.33 39.84h-17.46c.86 3 3.64 4.52 7.14 4.52a9.2 9.2 0 0 0 6-2l2.74 2.72a12.29 12.29 0 0 1-9.41 3.92c-6.42 0-12.17-4.06-12.17-11.3S139 26.36 145 26.36s12.63 3.89 11.33 13.48zm-17.55-4.1H151c-.36-3.1-3.14-4.65-6-4.65a6.12 6.12 0 0 0-6.22 4.65zM174.18 26.53v5.36a8.78 8.78 0 0 0-1.53-.13c-4.53 0-7.36 2.93-7.36 7.28v9.5h-6V26.78h6v5.65c.81-3.35 3.1-6.07 7.32-6.07a6.46 6.46 0 0 1 1.57.17zM184.55 26v.8h6v4.48h-6v17.26h-6V31.26h-3v-4.48h3v-1.42c0-6.41 4.76-7.45 7.86-7.45a9 9 0 0 1 4.17.83v4.4a6.09 6.09 0 0 0-2.6-.46c-2.31 0-3.43 1.17-3.43 3.32zM214.87 26.78v21.76h-6v-3a8.27 8.27 0 0 1-7.19 3.46c-4.76 0-8.8-2.76-8.8-9.37V26.78h6v11.88c0 3.18 1.84 5.28 5 5.28s5-2.1 5-5.28V26.78zM241.06 35.74v12.8h-6V36.66c0-3.18-1.84-5.28-5-5.28s-5 2.1-5 5.28v11.88h-6V26.78h6v3a8.19 8.19 0 0 1 7.14-3.39c4.8-.03 8.86 2.73 8.86 9.35zM267.47 18.83v29.71h-6v-2.93h-.13c-.6 1.21-3.34 3.39-7.47 3.39-5.43 0-11.22-3.77-11.22-11.3s5.79-11.3 11.22-11.3c4.17 0 6.87 2.14 7.45 3.35h.09V18.83zm-5.88 18.83c0-4.1-3.14-6.28-6.51-6.28s-6.51 2.22-6.51 6.28 3.15 6.28 6.51 6.28 6.51-2.18 6.51-6.28z"/></g></g></svg>
